<?xml version="1.0" encoding="UTF-8" standalone="no"?>
<!DOCTYPE svg PUBLIC "-//W3C//DTD SVG 1.1//EN"
 "http://www.w3.org/Graphics/SVG/1.1/DTD/svg11.dtd">
<!-- Generated by graphviz version 8.1.0 (20230707.0739)
 -->
<!-- Title: pipeline Pages: 1 -->
<svg width="2120pt" height="494pt"
 viewBox="0.00 0.00 2119.95 493.85" xmlns="http://www.w3.org/2000/svg" xmlns:xlink="http://www.w3.org/1999/xlink">
<g id="graph0" class="graph" transform="scale(1 1) rotate(0) translate(4 489.85)">
<title>pipeline</title>
<polygon fill="white" stroke="none" points="-4,4 -4,-489.85 2115.95,-489.85 2115.95,4 -4,4"/>
<text text-anchor="middle" x="1055.97" y="-472.35" font-family="sans" font-size="10.00">&lt;GstPipeline&gt;</text>
<text text-anchor="middle" x="1055.97" y="-460.35" font-family="sans" font-size="10.00">pipeline0</text>
<text text-anchor="middle" x="1055.97" y="-448.35" font-family="sans" font-size="10.00">[=] &#45;&gt; [0]</text>
<g id="clust1" class="cluster">
<title>cluster_capsfilter1_0x55902ae4b0</title>
<path fill="#aaffaa" stroke="black" d="M521.2,-67.85C521.2,-67.85 864.2,-67.85 864.2,-67.85 870.2,-67.85 876.2,-73.85 876.2,-79.85 876.2,-79.85 876.2,-156.85 876.2,-156.85 876.2,-162.85 870.2,-168.85 864.2,-168.85 864.2,-168.85 521.2,-168.85 521.2,-168.85 515.2,-168.85 509.2,-162.85 509.2,-156.85 509.2,-156.85 509.2,-79.85 509.2,-79.85 509.2,-73.85 515.2,-67.85 521.2,-67.85"/>
<text text-anchor="middle" x="692.7" y="-157.25" font-family="Bitstream Vera Sans" font-size="8.00">GstCapsFilter</text>
<text text-anchor="middle" x="692.7" y="-147.5" font-family="Bitstream Vera Sans" font-size="8.00">capsfilter1</text>
<text text-anchor="middle" x="692.7" y="-137.75" font-family="Bitstream Vera Sans" font-size="8.00">[=]</text>
<text text-anchor="middle" x="692.7" y="-128" font-family="Bitstream Vera Sans" font-size="8.00">caps=video/x&#45;bayer, format=(string)rggb12le, width=(int)1936, height=(int)1100</text>
</g>
<g id="clust2" class="cluster">
<title>cluster_capsfilter1_0x55902ae4b0_sink</title>
</g>
<g id="clust3" class="cluster">
<title>cluster_capsfilter1_0x55902ae4b0_src</title>
</g>
<g id="clust4" class="cluster">
<title>cluster_capsfilter0_0x55902bee70</title>
<path fill="#aaffaa" stroke="black" d="M503.2,-264.85C503.2,-264.85 882.2,-264.85 882.2,-264.85 888.2,-264.85 894.2,-270.85 894.2,-276.85 894.2,-276.85 894.2,-353.85 894.2,-353.85 894.2,-359.85 888.2,-365.85 882.2,-365.85 882.2,-365.85 503.2,-365.85 503.2,-365.85 497.2,-365.85 491.2,-359.85 491.2,-353.85 491.2,-353.85 491.2,-276.85 491.2,-276.85 491.2,-270.85 497.2,-264.85 503.2,-264.85"/>
<text text-anchor="middle" x="692.7" y="-354.25" font-family="Bitstream Vera Sans" font-size="8.00">GstCapsFilter</text>
<text text-anchor="middle" x="692.7" y="-344.5" font-family="Bitstream Vera Sans" font-size="8.00">capsfilter0</text>
<text text-anchor="middle" x="692.7" y="-334.75" font-family="Bitstream Vera Sans" font-size="8.00">[=]</text>
<text text-anchor="middle" x="692.7" y="-325" font-family="Bitstream Vera Sans" font-size="8.00">caps=video/x&#45;raw, format=(string)RGB, width=(int)1920, height=(int)1080, framerate=(f…</text>
</g>
<g id="clust5" class="cluster">
<title>cluster_capsfilter0_0x55902bee70_sink</title>
</g>
<g id="clust6" class="cluster">
<title>cluster_capsfilter0_0x55902bee70_src</title>
</g>
<g id="clust7" class="cluster">
<title>cluster_v4l2sink1_0x55902c6120</title>
<path fill="#aaaaff" stroke="black" d="M1095.45,-67.85C1095.45,-67.85 1262.45,-67.85 1262.45,-67.85 1268.45,-67.85 1274.45,-73.85 1274.45,-79.85 1274.45,-79.85 1274.45,-244.85 1274.45,-244.85 1274.45,-250.85 1268.45,-256.85 1262.45,-256.85 1262.45,-256.85 1095.45,-256.85 1095.45,-256.85 1089.45,-256.85 1083.45,-250.85 1083.45,-244.85 1083.45,-244.85 1083.45,-79.85 1083.45,-79.85 1083.45,-73.85 1089.45,-67.85 1095.45,-67.85"/>
<text text-anchor="middle" x="1178.95" y="-245.25" font-family="Bitstream Vera Sans" font-size="8.00">GstV4l2Sink</text>
<text text-anchor="middle" x="1178.95" y="-235.5" font-family="Bitstream Vera Sans" font-size="8.00">v4l2sink1</text>
<text text-anchor="middle" x="1178.95" y="-225.75" font-family="Bitstream Vera Sans" font-size="8.00">[=]</text>
<text text-anchor="middle" x="1178.95" y="-216" font-family="Bitstream Vera Sans" font-size="8.00">max&#45;lateness=5000000</text>
<text text-anchor="middle" x="1178.95" y="-206.25" font-family="Bitstream Vera Sans" font-size="8.00">qos=TRUE</text>
<text text-anchor="middle" x="1178.95" y="-196.5" font-family="Bitstream Vera Sans" font-size="8.00">last&#45;sample=((GstSample*) 0x55902ec070)</text>
<text text-anchor="middle" x="1178.95" y="-186.75" font-family="Bitstream Vera Sans" font-size="8.00">processing&#45;deadline=15000000</text>
<text text-anchor="middle" x="1178.95" y="-177" font-family="Bitstream Vera Sans" font-size="8.00">device=&quot;/dev/video/isp0&#45;in&quot;</text>
<text text-anchor="middle" x="1178.95" y="-167.25" font-family="Bitstream Vera Sans" font-size="8.00">device&#45;name=&quot;Dream Chip ISP DMA&quot;</text>
<text text-anchor="middle" x="1178.95" y="-157.5" font-family="Bitstream Vera Sans" font-size="8.00">device&#45;fd=18</text>
<text text-anchor="middle" x="1178.95" y="-147.75" font-family="Bitstream Vera Sans" font-size="8.00">flags=output</text>
<text text-anchor="middle" x="1178.95" y="-138" font-family="Bitstream Vera Sans" font-size="8.00">io&#45;mode=dmabuf&#45;import</text>
<text text-anchor="middle" x="1178.95" y="-128.25" font-family="Bitstream Vera Sans" font-size="8.00">pixel&#45;aspect&#45;ratio=NULL</text>
</g>
<g id="clust8" class="cluster">
<title>cluster_v4l2sink1_0x55902c6120_sink</title>
</g>
<g id="clust9" class="cluster">
<title>cluster_v4l2src1_0x55902c0880</title>
<path fill="#ffaaaa" stroke="black" d="M82.97,-67.85C82.97,-67.85 218.97,-67.85 218.97,-67.85 224.97,-67.85 230.97,-73.85 230.97,-79.85 230.97,-79.85 230.97,-215.85 230.97,-215.85 230.97,-221.85 224.97,-227.85 218.97,-227.85 218.97,-227.85 82.97,-227.85 82.97,-227.85 76.97,-227.85 70.97,-221.85 70.97,-215.85 70.97,-215.85 70.97,-79.85 70.97,-79.85 70.97,-73.85 76.97,-67.85 82.97,-67.85"/>
<text text-anchor="middle" x="150.97" y="-216.25" font-family="Bitstream Vera Sans" font-size="8.00">GstV4l2Src</text>
<text text-anchor="middle" x="150.97" y="-206.5" font-family="Bitstream Vera Sans" font-size="8.00">v4l2src1</text>
<text text-anchor="middle" x="150.97" y="-196.75" font-family="Bitstream Vera Sans" font-size="8.00">[=]</text>
<text text-anchor="middle" x="150.97" y="-187" font-family="Bitstream Vera Sans" font-size="8.00">device=&quot;/dev/video/vi0&quot;</text>
<text text-anchor="middle" x="150.97" y="-177.25" font-family="Bitstream Vera Sans" font-size="8.00">device&#45;name=&quot;Dream Chip ISP DMA&quot;</text>
<text text-anchor="middle" x="150.97" y="-167.5" font-family="Bitstream Vera Sans" font-size="8.00">device&#45;fd=22</text>
<text text-anchor="middle" x="150.97" y="-157.75" font-family="Bitstream Vera Sans" font-size="8.00">flags=capture</text>
<text text-anchor="middle" x="150.97" y="-148" font-family="Bitstream Vera Sans" font-size="8.00">io&#45;mode=dmabuf</text>
<text text-anchor="middle" x="150.97" y="-138.25" font-family="Bitstream Vera Sans" font-size="8.00">pixel&#45;aspect&#45;ratio=NULL</text>
<text text-anchor="middle" x="150.97" y="-128.5" font-family="Bitstream Vera Sans" font-size="8.00">crop&#45;bounds=&lt; 0, 0, 0, 0 &gt;</text>
</g>
<g id="clust10" class="cluster">
<title>cluster_v4l2src1_0x55902c0880_src</title>
</g>
<g id="clust11" class="cluster">
<title>cluster_v4l2sink0_0x55902d4e60</title>
<path fill="#aaaaff" stroke="black" d="M1932.95,-264.85C1932.95,-264.85 2099.95,-264.85 2099.95,-264.85 2105.95,-264.85 2111.95,-270.85 2111.95,-276.85 2111.95,-276.85 2111.95,-421.85 2111.95,-421.85 2111.95,-427.85 2105.95,-433.85 2099.95,-433.85 2099.95,-433.85 1932.95,-433.85 1932.95,-433.85 1926.95,-433.85 1920.95,-427.85 1920.95,-421.85 1920.95,-421.85 1920.95,-276.85 1920.95,-276.85 1920.95,-270.85 1926.95,-264.85 1932.95,-264.85"/>
<text text-anchor="middle" x="2016.45" y="-422.25" font-family="Bitstream Vera Sans" font-size="8.00">GstV4l2Sink</text>
<text text-anchor="middle" x="2016.45" y="-412.5" font-family="Bitstream Vera Sans" font-size="8.00">v4l2sink0</text>
<text text-anchor="middle" x="2016.45" y="-402.75" font-family="Bitstream Vera Sans" font-size="8.00">[=]</text>
<text text-anchor="middle" x="2016.45" y="-393" font-family="Bitstream Vera Sans" font-size="8.00">max&#45;lateness=5000000</text>
<text text-anchor="middle" x="2016.45" y="-383.25" font-family="Bitstream Vera Sans" font-size="8.00">qos=TRUE</text>
<text text-anchor="middle" x="2016.45" y="-373.5" font-family="Bitstream Vera Sans" font-size="8.00">last&#45;sample=((GstSample*) 0x55902ec070)</text>
<text text-anchor="middle" x="2016.45" y="-363.75" font-family="Bitstream Vera Sans" font-size="8.00">processing&#45;deadline=15000000</text>
<text text-anchor="middle" x="2016.45" y="-354" font-family="Bitstream Vera Sans" font-size="8.00">device=&quot;/dev/video/mvdu0&quot;</text>
<text text-anchor="middle" x="2016.45" y="-344.25" font-family="Bitstream Vera Sans" font-size="8.00">device&#45;name=&quot;mvdu&quot;</text>
<text text-anchor="middle" x="2016.45" y="-334.5" font-family="Bitstream Vera Sans" font-size="8.00">device&#45;fd=19</text>
<text text-anchor="middle" x="2016.45" y="-324.75" font-family="Bitstream Vera Sans" font-size="8.00">flags=output</text>
</g>
<g id="clust12" class="cluster">
<title>cluster_v4l2sink0_0x55902d4e60_sink</title>
</g>
<g id="clust13" class="cluster">
<title>cluster_v4l2convert0_0x55902e6ac0</title>
<path fill="#aaffaa" stroke="black" d="M1570.7,-264.85C1570.7,-264.85 1719.7,-264.85 1719.7,-264.85 1725.7,-264.85 1731.7,-270.85 1731.7,-276.85 1731.7,-276.85 1731.7,-412.85 1731.7,-412.85 1731.7,-418.85 1725.7,-424.85 1719.7,-424.85 1719.7,-424.85 1570.7,-424.85 1570.7,-424.85 1564.7,-424.85 1558.7,-418.85 1558.7,-412.85 1558.7,-412.85 1558.7,-276.85 1558.7,-276.85 1558.7,-270.85 1564.7,-264.85 1570.7,-264.85"/>
<text text-anchor="middle" x="1645.2" y="-413.25" font-family="Bitstream Vera Sans" font-size="8.00">v4l2convert</text>
<text text-anchor="middle" x="1645.2" y="-403.5" font-family="Bitstream Vera Sans" font-size="8.00">v4l2convert0</text>
<text text-anchor="middle" x="1645.2" y="-393.75" font-family="Bitstream Vera Sans" font-size="8.00">[=]</text>
<text text-anchor="middle" x="1645.2" y="-384" font-family="Bitstream Vera Sans" font-size="8.00">qos=TRUE</text>
<text text-anchor="middle" x="1645.2" y="-374.25" font-family="Bitstream Vera Sans" font-size="8.00">device=&quot;/dev/video3&quot;</text>
<text text-anchor="middle" x="1645.2" y="-364.5" font-family="Bitstream Vera Sans" font-size="8.00">device&#45;name=&quot;nna&quot;</text>
<text text-anchor="middle" x="1645.2" y="-354.75" font-family="Bitstream Vera Sans" font-size="8.00">device&#45;fd=20</text>
<text text-anchor="middle" x="1645.2" y="-345" font-family="Bitstream Vera Sans" font-size="8.00">output&#45;io&#45;mode=dmabuf</text>
<text text-anchor="middle" x="1645.2" y="-335.25" font-family="Bitstream Vera Sans" font-size="8.00">capture&#45;io&#45;mode=dmabuf</text>
<text text-anchor="middle" x="1645.2" y="-325.5" font-family="Bitstream Vera Sans" font-size="8.00">disable&#45;passthrough=TRUE</text>
</g>
<g id="clust14" class="cluster">
<title>cluster_v4l2convert0_0x55902e6ac0_sink</title>
</g>
<g id="clust15" class="cluster">
<title>cluster_v4l2convert0_0x55902e6ac0_src</title>
</g>
<g id="clust16" class="cluster">
<title>cluster_queue0_0x55902db480</title>
<path fill="#aaffaa" stroke="black" d="M1147.45,-264.85C1147.45,-264.85 1357.45,-264.85 1357.45,-264.85 1363.45,-264.85 1369.45,-270.85 1369.45,-276.85 1369.45,-276.85 1369.45,-353.85 1369.45,-353.85 1369.45,-359.85 1363.45,-365.85 1357.45,-365.85 1357.45,-365.85 1147.45,-365.85 1147.45,-365.85 1141.45,-365.85 1135.45,-359.85 1135.45,-353.85 1135.45,-353.85 1135.45,-276.85 1135.45,-276.85 1135.45,-270.85 1141.45,-264.85 1147.45,-264.85"/>
<text text-anchor="middle" x="1252.45" y="-354.25" font-family="Bitstream Vera Sans" font-size="8.00">GstQueue</text>
<text text-anchor="middle" x="1252.45" y="-344.5" font-family="Bitstream Vera Sans" font-size="8.00">queue0</text>
<text text-anchor="middle" x="1252.45" y="-334.75" font-family="Bitstream Vera Sans" font-size="8.00">[=]</text>
<text text-anchor="middle" x="1252.45" y="-325" font-family="Bitstream Vera Sans" font-size="8.00">leaky=downstream</text>
</g>
<g id="clust17" class="cluster">
<title>cluster_queue0_0x55902db480_sink</title>
</g>
<g id="clust18" class="cluster">
<title>cluster_queue0_0x55902db480_src</title>
</g>
<g id="clust19" class="cluster">
<title>cluster_v4l2src0_0x55902e7580</title>
<path fill="#ffaaaa" stroke="black" d="M82.97,-264.85C82.97,-264.85 218.97,-264.85 218.97,-264.85 224.97,-264.85 230.97,-270.85 230.97,-276.85 230.97,-276.85 230.97,-402.85 230.97,-402.85 230.97,-408.85 224.97,-414.85 218.97,-414.85 218.97,-414.85 82.97,-414.85 82.97,-414.85 76.97,-414.85 70.97,-408.85 70.97,-402.85 70.97,-402.85 70.97,-276.85 70.97,-276.85 70.97,-270.85 76.97,-264.85 82.97,-264.85"/>
<text text-anchor="middle" x="150.97" y="-403.25" font-family="Bitstream Vera Sans" font-size="8.00">GstV4l2Src</text>
<text text-anchor="middle" x="150.97" y="-393.5" font-family="Bitstream Vera Sans" font-size="8.00">v4l2src0</text>
<text text-anchor="middle" x="150.97" y="-383.75" font-family="Bitstream Vera Sans" font-size="8.00">[=]</text>
<text text-anchor="middle" x="150.97" y="-374" font-family="Bitstream Vera Sans" font-size="8.00">device=&quot;/dev/video/isp0&#45;hv&quot;</text>
<text text-anchor="middle" x="150.97" y="-364.25" font-family="Bitstream Vera Sans" font-size="8.00">device&#45;name=&quot;Dream Chip ISP DMA&quot;</text>
<text text-anchor="middle" x="150.97" y="-354.5" font-family="Bitstream Vera Sans" font-size="8.00">device&#45;fd=23</text>
<text text-anchor="middle" x="150.97" y="-344.75" font-family="Bitstream Vera Sans" font-size="8.00">flags=capture</text>
<text text-anchor="middle" x="150.97" y="-335" font-family="Bitstream Vera Sans" font-size="8.00">pixel&#45;aspect&#45;ratio=NULL</text>
<text text-anchor="middle" x="150.97" y="-325.25" font-family="Bitstream Vera Sans" font-size="8.00">crop&#45;bounds=&lt; 0, 0, 0, 0 &gt;</text>
</g>
<g id="clust20" class="cluster">
<title>cluster_v4l2src0_0x55902e7580_src</title>
</g>
<!-- legend -->
<g id="node1" class="node">
<title>legend</title>
<polygon fill="lightgrey" stroke="black" points="301.95,-59.7 0,-59.7 0,0 301.95,0 301.95,-59.7"/>
<text text-anchor="start" x="3.6" y="-47.55" font-family="sans" font-size="9.00">Legend</text>
<text text-anchor="start" x="3.6" y="-37.05" font-family="sans" font-size="9.00">Element&#45;States: [~] void&#45;pending, [0] null, [&#45;] ready, [=] paused, [&gt;] playing</text>
<text text-anchor="start" x="3.6" y="-26.55" font-family="sans" font-size="9.00">Pad&#45;Activation: [&#45;] none, [&gt;] push, [&lt;] pull</text>
<text text-anchor="start" x="3.6" y="-16.05" font-family="sans" font-size="9.00">Pad&#45;Flags: [b]locked, [f]lushing, [b]locking, [E]OS; upper&#45;case is set</text>
<text text-anchor="start" x="3.6" y="-5.55" font-family="sans" font-size="9.00">Pad&#45;Task: [T] has started task, [t] has paused task</text>
</g>
<!-- capsfilter1_0x55902ae4b0_sink_0x55902ae760 -->
<g id="node2" class="node">
<title>capsfilter1_0x55902ae4b0_sink_0x55902ae760</title>
<polygon fill="#aaaaff" stroke="black" points="676.2,-105.35 622.2,-105.35 622.2,-84.35 676.2,-84.35 676.2,-105.35"/>
<text text-anchor="middle" x="649.2" y="-96.8" font-family="sans" font-size="9.00">sink</text>
<text text-anchor="middle" x="649.2" y="-86.3" font-family="sans" font-size="9.00">[&gt;][bfbE]</text>
</g>
<!-- capsfilter1_0x55902ae4b0_src_0x55902aeac0 -->
<g id="node3" class="node">
<title>capsfilter1_0x55902ae4b0_src_0x55902aeac0</title>
<polygon fill="#ffaaaa" stroke="black" points="763.2,-105.35 709.2,-105.35 709.2,-84.35 763.2,-84.35 763.2,-105.35"/>
<text text-anchor="middle" x="736.2" y="-96.8" font-family="sans" font-size="9.00">src</text>
<text text-anchor="middle" x="736.2" y="-86.3" font-family="sans" font-size="9.00">[&gt;][bfbE]</text>
</g>
<!-- capsfilter1_0x55902ae4b0_sink_0x55902ae760&#45;&gt;capsfilter1_0x55902ae4b0_src_0x55902aeac0 -->
<!-- v4l2sink1_0x55902c6120_sink_0x55902c6470 -->
<g id="node4" class="node">
<title>v4l2sink1_0x55902c6120_sink_0x55902c6470</title>
<polygon fill="#aaaaff" stroke="black" points="1205.45,-105.35 1151.45,-105.35 1151.45,-84.35 1205.45,-84.35 1205.45,-105.35"/>
<text text-anchor="middle" x="1178.45" y="-96.8" font-family="sans" font-size="9.00">sink</text>
<text text-anchor="middle" x="1178.45" y="-86.3" font-family="sans" font-size="9.00">[&gt;][bfbE]</text>
</g>
<!-- capsfilter1_0x55902ae4b0_src_0x55902aeac0&#45;&gt;v4l2sink1_0x55902c6120_sink_0x55902c6470 -->
<g id="edge2" class="edge">
<title>capsfilter1_0x55902ae4b0_src_0x55902aeac0&#45;&gt;v4l2sink1_0x55902c6120_sink_0x55902c6470</title>
<path fill="none" stroke="black" d="M763.42,-94.85C838.27,-94.85 1053.12,-94.85 1140.16,-94.85"/>
<polygon fill="black" stroke="black" points="1140.09,-98.35 1150.09,-94.85 1140.09,-91.35 1140.09,-98.35"/>
<text text-anchor="start" x="902.2" y="-149.3" font-family="monospace" font-size="9.00">video/x&#45;bayer</text>
<text text-anchor="start" x="902.2" y="-138.8" font-family="monospace" font-size="9.00"> &#160;&#160;&#160;&#160;&#160;&#160;&#160;&#160;&#160;&#160;&#160;&#160;&#160;format: rggb12le</text>
<text text-anchor="start" x="902.2" y="-128.3" font-family="monospace" font-size="9.00"> &#160;&#160;&#160;&#160;&#160;&#160;&#160;&#160;&#160;&#160;&#160;&#160;&#160;&#160;width: 1936</text>
<text text-anchor="start" x="902.2" y="-117.8" font-family="monospace" font-size="9.00"> &#160;&#160;&#160;&#160;&#160;&#160;&#160;&#160;&#160;&#160;&#160;&#160;&#160;height: 1100</text>
<text text-anchor="start" x="902.2" y="-107.3" font-family="monospace" font-size="9.00"> &#160;&#160;&#160;&#160;&#160;&#160;&#160;&#160;&#160;&#160;framerate: 120/1</text>
<text text-anchor="start" x="902.2" y="-96.8" font-family="monospace" font-size="9.00"> &#160;&#160;&#160;&#160;&#160;interlace&#45;mode: progressive</text>
</g>
<!-- capsfilter0_0x55902bee70_sink_0x55902e0200 -->
<g id="node5" class="node">
<title>capsfilter0_0x55902bee70_sink_0x55902e0200</title>
<polygon fill="#aaaaff" stroke="black" points="676.2,-302.35 622.2,-302.35 622.2,-281.35 676.2,-281.35 676.2,-302.35"/>
<text text-anchor="middle" x="649.2" y="-293.8" font-family="sans" font-size="9.00">sink</text>
<text text-anchor="middle" x="649.2" y="-283.3" font-family="sans" font-size="9.00">[&gt;][bfbE]</text>
</g>
<!-- capsfilter0_0x55902bee70_src_0x55902df260 -->
<g id="node6" class="node">
<title>capsfilter0_0x55902bee70_src_0x55902df260</title>
<polygon fill="#ffaaaa" stroke="black" points="763.2,-302.35 709.2,-302.35 709.2,-281.35 763.2,-281.35 763.2,-302.35"/>
<text text-anchor="middle" x="736.2" y="-293.8" font-family="sans" font-size="9.00">src</text>
<text text-anchor="middle" x="736.2" y="-283.3" font-family="sans" font-size="9.00">[&gt;][bfbE]</text>
</g>
<!-- capsfilter0_0x55902bee70_sink_0x55902e0200&#45;&gt;capsfilter0_0x55902bee70_src_0x55902df260 -->
<!-- queue0_0x55902db480_sink_0x55902e3400 -->
<g id="node7" class="node">
<title>queue0_0x55902db480_sink_0x55902e3400</title>
<polygon fill="#aaaaff" stroke="black" points="1205.45,-302.35 1151.45,-302.35 1151.45,-281.35 1205.45,-281.35 1205.45,-302.35"/>
<text text-anchor="middle" x="1178.45" y="-293.8" font-family="sans" font-size="9.00">sink</text>
<text text-anchor="middle" x="1178.45" y="-283.3" font-family="sans" font-size="9.00">[&gt;][bfbE]</text>
</g>
<!-- capsfilter0_0x55902bee70_src_0x55902df260&#45;&gt;queue0_0x55902db480_sink_0x55902e3400 -->
<g id="edge4" class="edge">
<title>capsfilter0_0x55902bee70_src_0x55902df260&#45;&gt;queue0_0x55902db480_sink_0x55902e3400</title>
<path fill="none" stroke="black" d="M763.42,-291.85C838.27,-291.85 1053.12,-291.85 1140.16,-291.85"/>
<polygon fill="black" stroke="black" points="1140.09,-295.35 1150.09,-291.85 1140.09,-288.35 1140.09,-295.35"/>
<text text-anchor="start" x="902.2" y="-356.8" font-family="monospace" font-size="9.00">video/x&#45;raw</text>
<text text-anchor="start" x="902.2" y="-346.3" font-family="monospace" font-size="9.00"> &#160;&#160;&#160;&#160;&#160;&#160;&#160;&#160;&#160;&#160;&#160;&#160;&#160;format: RGB</text>
<text text-anchor="start" x="902.2" y="-335.8" font-family="monospace" font-size="9.00"> &#160;&#160;&#160;&#160;&#160;&#160;&#160;&#160;&#160;&#160;&#160;&#160;&#160;&#160;width: 1920</text>
<text text-anchor="start" x="902.2" y="-325.3" font-family="monospace" font-size="9.00"> &#160;&#160;&#160;&#160;&#160;&#160;&#160;&#160;&#160;&#160;&#160;&#160;&#160;height: 1080</text>
<text text-anchor="start" x="902.2" y="-314.8" font-family="monospace" font-size="9.00"> &#160;&#160;&#160;&#160;&#160;&#160;&#160;&#160;&#160;&#160;framerate: 15/1</text>
<text text-anchor="start" x="902.2" y="-304.3" font-family="monospace" font-size="9.00"> &#160;&#160;&#160;&#160;&#160;interlace&#45;mode: progressive</text>
<text text-anchor="start" x="902.2" y="-293.8" font-family="monospace" font-size="9.00"> &#160;&#160;&#160;&#160;&#160;&#160;&#160;&#160;colorimetry: 2:1:5:1</text>
</g>
<!-- queue0_0x55902db480_src_0x55902d5c20 -->
<g id="node12" class="node">
<title>queue0_0x55902db480_src_0x55902d5c20</title>
<polygon fill="#ffaaaa" stroke="black" points="1353.45,-302.35 1299.45,-302.35 1299.45,-281.35 1353.45,-281.35 1353.45,-302.35"/>
<text text-anchor="middle" x="1326.45" y="-293.8" font-family="sans" font-size="9.00">src</text>
<text text-anchor="middle" x="1326.45" y="-283.3" font-family="sans" font-size="9.00">[&gt;][bfbE][t]</text>
</g>
<!-- queue0_0x55902db480_sink_0x55902e3400&#45;&gt;queue0_0x55902db480_src_0x55902d5c20 -->
<!-- v4l2src1_0x55902c0880_src_0x55902f2000 -->
<g id="node8" class="node">
<title>v4l2src1_0x55902c0880_src_0x55902f2000</title>
<polygon fill="#ffaaaa" stroke="black" points="177.97,-105.35 123.97,-105.35 123.97,-84.35 177.97,-84.35 177.97,-105.35"/>
<text text-anchor="middle" x="150.97" y="-96.8" font-family="sans" font-size="9.00">src</text>
<text text-anchor="middle" x="150.97" y="-86.3" font-family="sans" font-size="9.00">[&gt;][bfbE][t]</text>
</g>
<!-- v4l2src1_0x55902c0880_src_0x55902f2000&#45;&gt;capsfilter1_0x55902ae4b0_sink_0x55902ae760 -->
<g id="edge5" class="edge">
<title>v4l2src1_0x55902c0880_src_0x55902f2000&#45;&gt;capsfilter1_0x55902ae4b0_sink_0x55902ae760</title>
<path fill="none" stroke="black" d="M178.3,-94.85C260.9,-94.85 515.12,-94.85 611.04,-94.85"/>
<polygon fill="black" stroke="black" points="610.93,-98.35 620.93,-94.85 610.93,-91.35 610.93,-98.35"/>
<text text-anchor="start" x="309.95" y="-149.3" font-family="monospace" font-size="9.00">video/x&#45;bayer</text>
<text text-anchor="start" x="309.95" y="-138.8" font-family="monospace" font-size="9.00"> &#160;&#160;&#160;&#160;&#160;&#160;&#160;&#160;&#160;&#160;&#160;&#160;&#160;format: rggb12le</text>
<text text-anchor="start" x="309.95" y="-128.3" font-family="monospace" font-size="9.00"> &#160;&#160;&#160;&#160;&#160;&#160;&#160;&#160;&#160;&#160;&#160;&#160;&#160;&#160;width: 1936</text>
<text text-anchor="start" x="309.95" y="-117.8" font-family="monospace" font-size="9.00"> &#160;&#160;&#160;&#160;&#160;&#160;&#160;&#160;&#160;&#160;&#160;&#160;&#160;height: 1100</text>
<text text-anchor="start" x="309.95" y="-107.3" font-family="monospace" font-size="9.00"> &#160;&#160;&#160;&#160;&#160;&#160;&#160;&#160;&#160;&#160;framerate: 120/1</text>
<text text-anchor="start" x="309.95" y="-96.8" font-family="monospace" font-size="9.00"> &#160;&#160;&#160;&#160;&#160;interlace&#45;mode: progressive</text>
</g>
<!-- v4l2sink0_0x55902d4e60_sink_0x55902e1cc0 -->
<g id="node9" class="node">
<title>v4l2sink0_0x55902d4e60_sink_0x55902e1cc0</title>
<polygon fill="#aaaaff" stroke="black" points="2042.95,-302.35 1988.95,-302.35 1988.95,-281.35 2042.95,-281.35 2042.95,-302.35"/>
<text text-anchor="middle" x="2015.95" y="-293.8" font-family="sans" font-size="9.00">sink</text>
<text text-anchor="middle" x="2015.95" y="-283.3" font-family="sans" font-size="9.00">[&gt;][bfbE]</text>
</g>
<!-- v4l2convert0_0x55902e6ac0_sink_0x55902ab910 -->
<g id="node10" class="node">
<title>v4l2convert0_0x55902e6ac0_sink_0x55902ab910</title>
<polygon fill="#aaaaff" stroke="black" points="1628.7,-302.35 1574.7,-302.35 1574.7,-281.35 1628.7,-281.35 1628.7,-302.35"/>
<text text-anchor="middle" x="1601.7" y="-293.8" font-family="sans" font-size="9.00">sink</text>
<text text-anchor="middle" x="1601.7" y="-283.3" font-family="sans" font-size="9.00">[&gt;][bfbE]</text>
</g>
<!-- v4l2convert0_0x55902e6ac0_src_0x55902b9760 -->
<g id="node11" class="node">
<title>v4l2convert0_0x55902e6ac0_src_0x55902b9760</title>
<polygon fill="#ffaaaa" stroke="black" points="1715.7,-302.35 1661.7,-302.35 1661.7,-281.35 1715.7,-281.35 1715.7,-302.35"/>
<text text-anchor="middle" x="1688.7" y="-293.8" font-family="sans" font-size="9.00">src</text>
<text text-anchor="middle" x="1688.7" y="-283.3" font-family="sans" font-size="9.00">[&gt;][bfbE]</text>
</g>
<!-- v4l2convert0_0x55902e6ac0_sink_0x55902ab910&#45;&gt;v4l2convert0_0x55902e6ac0_src_0x55902b9760 -->
<!-- v4l2convert0_0x55902e6ac0_src_0x55902b9760&#45;&gt;v4l2sink0_0x55902d4e60_sink_0x55902e1cc0 -->
<g id="edge7" class="edge">
<title>v4l2convert0_0x55902e6ac0_src_0x55902b9760&#45;&gt;v4l2sink0_0x55902d4e60_sink_0x55902e1cc0</title>
<path fill="none" stroke="black" d="M1716.04,-291.85C1773.8,-291.85 1911.7,-291.85 1978.05,-291.85"/>
<polygon fill="black" stroke="black" points="1977.82,-295.35 1987.82,-291.85 1977.82,-288.35 1977.82,-295.35"/>
<text text-anchor="start" x="1739.7" y="-367.3" font-family="monospace" font-size="9.00">video/x&#45;raw</text>
<text text-anchor="start" x="1739.7" y="-356.8" font-family="monospace" font-size="9.00"> &#160;&#160;&#160;&#160;&#160;&#160;&#160;&#160;&#160;&#160;framerate: 15/1</text>
<text text-anchor="start" x="1739.7" y="-346.3" font-family="monospace" font-size="9.00"> &#160;&#160;&#160;&#160;&#160;interlace&#45;mode: progressive</text>
<text text-anchor="start" x="1739.7" y="-335.8" font-family="monospace" font-size="9.00"> &#160;&#160;&#160;&#160;&#160;&#160;&#160;&#160;&#160;&#160;&#160;&#160;&#160;format: NV61</text>
<text text-anchor="start" x="1739.7" y="-325.3" font-family="monospace" font-size="9.00"> &#160;&#160;&#160;&#160;&#160;&#160;&#160;&#160;&#160;&#160;&#160;&#160;&#160;&#160;width: 1920</text>
<text text-anchor="start" x="1739.7" y="-314.8" font-family="monospace" font-size="9.00"> &#160;&#160;&#160;&#160;&#160;&#160;&#160;&#160;&#160;&#160;&#160;&#160;&#160;height: 1080</text>
<text text-anchor="start" x="1739.7" y="-304.3" font-family="monospace" font-size="9.00"> &#160;pixel&#45;aspect&#45;ratio: 1/1</text>
<text text-anchor="start" x="1739.7" y="-293.8" font-family="monospace" font-size="9.00"> &#160;&#160;&#160;&#160;&#160;&#160;&#160;&#160;colorimetry: bt709</text>
</g>
<!-- queue0_0x55902db480_src_0x55902d5c20&#45;&gt;v4l2convert0_0x55902e6ac0_sink_0x55902ab910 -->
<g id="edge9" class="edge">
<title>queue0_0x55902db480_src_0x55902d5c20&#45;&gt;v4l2convert0_0x55902e6ac0_sink_0x55902ab910</title>
<path fill="none" stroke="black" d="M1353.65,-291.85C1402.51,-291.85 1507.66,-291.85 1563.72,-291.85"/>
<polygon fill="black" stroke="black" points="1563.58,-295.35 1573.58,-291.85 1563.58,-288.35 1563.58,-295.35"/>
<text text-anchor="start" x="1377.45" y="-356.8" font-family="monospace" font-size="9.00">video/x&#45;raw</text>
<text text-anchor="start" x="1377.45" y="-346.3" font-family="monospace" font-size="9.00"> &#160;&#160;&#160;&#160;&#160;&#160;&#160;&#160;&#160;&#160;&#160;&#160;&#160;format: RGB</text>
<text text-anchor="start" x="1377.45" y="-335.8" font-family="monospace" font-size="9.00"> &#160;&#160;&#160;&#160;&#160;&#160;&#160;&#160;&#160;&#160;&#160;&#160;&#160;&#160;width: 1920</text>
<text text-anchor="start" x="1377.45" y="-325.3" font-family="monospace" font-size="9.00"> &#160;&#160;&#160;&#160;&#160;&#160;&#160;&#160;&#160;&#160;&#160;&#160;&#160;height: 1080</text>
<text text-anchor="start" x="1377.45" y="-314.8" font-family="monospace" font-size="9.00"> &#160;&#160;&#160;&#160;&#160;&#160;&#160;&#160;&#160;&#160;framerate: 15/1</text>
<text text-anchor="start" x="1377.45" y="-304.3" font-family="monospace" font-size="9.00"> &#160;&#160;&#160;&#160;&#160;interlace&#45;mode: progressive</text>
<text text-anchor="start" x="1377.45" y="-293.8" font-family="monospace" font-size="9.00"> &#160;&#160;&#160;&#160;&#160;&#160;&#160;&#160;colorimetry: 2:1:5:1</text>
</g>
<!-- v4l2src0_0x55902e7580_src_0x55902cca60 -->
<g id="node13" class="node">
<title>v4l2src0_0x55902e7580_src_0x55902cca60</title>
<polygon fill="#ffaaaa" stroke="black" points="177.97,-302.35 123.97,-302.35 123.97,-281.35 177.97,-281.35 177.97,-302.35"/>
<text text-anchor="middle" x="150.97" y="-293.8" font-family="sans" font-size="9.00">src</text>
<text text-anchor="middle" x="150.97" y="-283.3" font-family="sans" font-size="9.00">[&gt;][bfbE][t]</text>
</g>
<!-- v4l2src0_0x55902e7580_src_0x55902cca60&#45;&gt;capsfilter0_0x55902bee70_sink_0x55902e0200 -->
<g id="edge10" class="edge">
<title>v4l2src0_0x55902e7580_src_0x55902cca60&#45;&gt;capsfilter0_0x55902bee70_sink_0x55902e0200</title>
<path fill="none" stroke="black" d="M178.3,-291.85C260.9,-291.85 515.12,-291.85 611.04,-291.85"/>
<polygon fill="black" stroke="black" points="610.93,-295.35 620.93,-291.85 610.93,-288.35 610.93,-295.35"/>
<text text-anchor="start" x="309.95" y="-356.8" font-family="monospace" font-size="9.00">video/x&#45;raw</text>
<text text-anchor="start" x="309.95" y="-346.3" font-family="monospace" font-size="9.00"> &#160;&#160;&#160;&#160;&#160;&#160;&#160;&#160;&#160;&#160;&#160;&#160;&#160;format: RGB</text>
<text text-anchor="start" x="309.95" y="-335.8" font-family="monospace" font-size="9.00"> &#160;&#160;&#160;&#160;&#160;&#160;&#160;&#160;&#160;&#160;&#160;&#160;&#160;&#160;width: 1920</text>
<text text-anchor="start" x="309.95" y="-325.3" font-family="monospace" font-size="9.00"> &#160;&#160;&#160;&#160;&#160;&#160;&#160;&#160;&#160;&#160;&#160;&#160;&#160;height: 1080</text>
<text text-anchor="start" x="309.95" y="-314.8" font-family="monospace" font-size="9.00"> &#160;&#160;&#160;&#160;&#160;&#160;&#160;&#160;&#160;&#160;framerate: 15/1</text>
<text text-anchor="start" x="309.95" y="-304.3" font-family="monospace" font-size="9.00"> &#160;&#160;&#160;&#160;&#160;interlace&#45;mode: progressive</text>
<text text-anchor="start" x="309.95" y="-293.8" font-family="monospace" font-size="9.00"> &#160;&#160;&#160;&#160;&#160;&#160;&#160;&#160;colorimetry: 2:1:5:1</text>
</g>
</g>
</svg>
